<svg width="105" height="200" viewBox="0 0 95 61" fill="none" xmlns="http://www.w3.org/2000/svg">
<g clip-path="url(#clip0_49_45)">
<path d="M65.3293 0H29.6707C13.284 0 0 13.6553 0 30.5C0 47.3447 13.284 61 29.6707 61H65.3293C81.716 61 95 47.3447 95 30.5C95 13.6553 81.716 0 65.3293 0Z" fill="white"/>
<path d="M34.957 31.505V39.6461H31.3561V31.2119C31.3561 30.4655 31.2319 29.8636 30.9854 29.4051C30.6636 28.7613 30.0526 28.4378 29.1544 28.4378L26.3082 28.4661V39.645H22.7938V20.9583H26.3082V25.4502L30.2064 25.424C31.0394 25.424 31.7961 25.5727 32.4773 25.8689C33.1576 26.1662 33.7167 26.6195 34.1546 27.2298C34.5252 27.7469 34.7523 28.2787 34.8348 28.8262C34.9173 29.3737 34.9591 30.2655 34.9591 31.5039L34.957 31.505Z" fill="black"/>
<path d="M39.3675 24.2369V39.647H35.791V24.2369H39.3675Z" fill="black"/>
<path d="M40.2931 20.8954H43.8196V39.646H40.2931V20.8954Z" fill="black"/>
<path d="M48.3208 27.28V39.6471H44.7444V27.28H48.3208Z" fill="black"/>
<path d="M56.2151 37.0635V39.7737L54.544 39.8376C52.8779 39.8972 51.7384 39.5999 51.1284 38.9467C50.7323 38.5311 50.5347 37.8915 50.5347 37.0258V28.3624H48.6538V25.7799H50.5347V22.0396H54.0246V25.7799H56.2151V28.3624H54.0246V35.8167C54.0246 36.3852 54.0949 36.739 54.2354 36.8793C54.3759 37.0195 54.8047 37.0886 55.5226 37.0886C55.6295 37.0886 55.7436 37.0865 55.8627 37.0823C55.9819 37.0782 56.1 37.0719 56.2151 37.0635Z" fill="black"/>
<path d="M68.423 35.576C68.3324 36.3988 67.9159 37.2342 67.1735 38.0821C66.0187 39.4304 64.4015 40.1045 62.322 40.1045C60.6061 40.1045 59.0918 39.5371 57.7802 38.4003C56.4686 37.2645 55.8127 35.4148 55.8127 32.8543C55.8127 30.4539 56.4044 28.6136 57.5887 27.3334C58.7721 26.0531 60.3088 25.4125 62.1988 25.4125C63.3211 25.4125 64.3313 25.6281 65.2305 26.0615C66.1297 26.4938 66.872 27.1774 67.4576 28.1101C67.9851 28.9329 68.3283 29.8866 68.4851 30.9721C68.5757 31.6075 68.6134 32.5235 68.5961 33.72H59.3648C59.4147 35.1112 59.8393 36.0868 60.6397 36.6458C61.1265 36.9934 61.7121 37.1672 62.3974 37.1672C63.1235 37.1672 63.7131 36.9557 64.1673 36.5307C64.4148 36.3014 64.6337 35.9832 64.8231 35.577H68.424L68.423 35.576ZM64.9331 31.327C64.8751 30.3681 64.593 29.6416 64.0858 29.1454C63.5787 28.6492 62.9494 28.4011 62.1988 28.4011C61.3821 28.4011 60.7487 28.6639 60.2996 29.1894C59.8495 29.7149 59.5674 30.4278 59.4513 31.327H64.9331Z" fill="black"/>
</g>
<defs>
<clipPath id="clip0_49_45">
<rect width="95" height="61" fill="white"/>
</clipPath>
</defs>
</svg>
