<svg width="425" height="166" viewBox="0 0 425 166" fill="none" xmlns="http://www.w3.org/2000/svg">
<path d="M112.934 91.7208V161.614H79.6229V89.2044C79.6229 82.7965 78.4736 77.6288 76.1938 73.6924C73.2169 68.1653 67.5646 65.3882 59.2557 65.3882L32.9252 65.6309V161.605H0.405518V1.18347H32.9158V39.7477L68.9777 39.523C76.6837 39.523 83.6831 40.7992 89.9855 43.3426C96.2784 45.8949 101.45 49.7864 105.501 55.0259C108.93 59.4656 111.031 64.0311 111.794 68.7315C112.557 73.4318 112.943 81.0889 112.943 91.7208H112.934Z" fill="white"/>
<path d="M153.744 29.3223V161.623H120.659V29.3223H153.744Z" fill="white"/>
<path d="M162.297 0.635498H194.921V161.615H162.297V0.635498Z" fill="white"/>
<path d="M236.57 55.4402V161.615H203.485V55.4402H236.57Z" fill="white"/>
<path d="M309.597 139.444V162.712L294.138 163.26C278.726 163.772 268.185 161.22 262.542 155.612C258.877 152.044 257.05 146.553 257.05 139.12V64.7421H239.65V42.5706H257.05V10.4683H289.334V42.5796H309.597V64.7511H289.334V128.749C289.334 133.629 289.984 136.667 291.284 137.871C292.584 139.075 296.55 139.669 303.191 139.669C304.181 139.669 305.236 139.651 306.338 139.615C307.44 139.579 308.533 139.525 309.597 139.453V139.444Z" fill="white"/>
<path d="M422.53 126.672C421.692 133.736 417.839 140.908 410.971 148.188C400.288 159.763 385.329 165.551 366.092 165.551C350.218 165.551 336.21 160.68 324.076 150.92C311.943 141.169 305.876 125.288 305.876 103.305C305.876 82.6978 311.349 66.8982 322.305 55.9068C333.252 44.9155 347.467 39.4153 364.952 39.4153C375.333 39.4153 384.679 41.2666 392.997 44.9874C401.315 48.6991 408.183 54.5677 413.6 62.5754C418.48 69.6393 421.654 77.8267 423.105 87.1464C423.943 92.6017 424.292 100.466 424.132 110.738H338.735C339.196 122.682 343.125 131.058 350.529 135.857C355.032 138.841 360.449 140.333 366.789 140.333C373.506 140.333 378.96 138.517 383.162 134.869C385.451 132.9 387.476 130.168 389.229 126.681H422.54L422.53 126.672ZM390.246 90.1931C389.709 81.9608 387.1 75.7237 382.408 71.4637C377.717 67.2038 371.895 65.0738 364.952 65.0738C357.397 65.0738 351.537 67.3296 347.383 71.8412C343.219 76.3528 340.609 82.4731 339.535 90.1931H390.246Z" fill="white"/>
</svg>
